<svg width="109" height="19" viewBox="0 0 109 19" fill="none" xmlns="http://www.w3.org/2000/svg">
<path d="M5.25355 12.3444V18.3969H0.953125V0.558072H8.07149C9.43554 0.558072 10.6403 0.811278 11.6858 1.31769C12.7395 1.81594 13.5522 2.53063 14.1239 3.46178C14.7039 4.38476 14.9938 5.43434 14.9938 6.61052C14.9938 8.3503 14.369 9.74293 13.1193 10.7884C11.8778 11.8258 10.1707 12.3444 7.99798 12.3444H5.25355ZM5.25355 9.02415H8.07149C8.90463 9.02415 9.53764 8.81587 9.97054 8.39931C10.4116 7.98274 10.6321 7.39465 10.6321 6.63503C10.6321 5.8019 10.4075 5.13621 9.95829 4.63796C9.50905 4.13972 8.89646 3.88651 8.1205 3.87834H5.25355V9.02415Z" fill="black"/>
<path d="M23.8432 8.30129V8.31354L26.7959 0.558072H31.3291L25.3256 14.709C24.6804 16.1384 23.9534 17.1472 23.1448 17.7353C22.3443 18.3152 21.405 18.6215 20.3269 18.6542H19.457L18.7954 18.6297L18.7218 15.2971C18.8199 15.3298 19.1057 15.3461 19.5795 15.3461C20.2329 15.3461 20.723 15.2359 21.0497 15.0153C21.3846 14.7866 21.6541 14.3497 21.8583 13.7044L22.0666 13.1163L15.6221 0.558072H20.1921L23.8432 8.30129Z" fill="black"/>
<path d="M46.5617 12.3567C46.5045 13.5982 46.1696 14.6968 45.557 15.6524C44.9444 16.5999 44.0827 17.335 42.9718 17.8578C41.8692 18.3805 40.6072 18.6419 39.186 18.6419C36.8418 18.6419 34.9958 17.8782 33.6481 16.3508C32.3004 14.8234 31.6266 12.6671 31.6266 9.88179V8.99965C31.6266 7.25171 31.9288 5.7243 32.5332 4.41743C33.1458 3.10239 34.0239 2.08956 35.1674 1.37895C36.3109 0.660171 37.6341 0.300781 39.137 0.300781C41.3015 0.300781 43.0413 0.872538 44.3563 2.01605C45.6714 3.1514 46.4187 4.71964 46.5984 6.72079H42.3102C42.2776 5.63445 42.0039 4.85441 41.4894 4.38067C40.9748 3.90693 40.1907 3.67006 39.137 3.67006C38.067 3.67006 37.2829 4.07029 36.7846 4.87075C36.2864 5.67121 36.025 6.94949 36.0005 8.7056V9.96755C36.0005 11.8707 36.2374 13.2306 36.7111 14.0474C37.193 14.8642 38.018 15.2726 39.186 15.2726C40.1743 15.2726 40.9299 15.0398 41.4526 14.5743C41.9753 14.1087 42.2531 13.3695 42.2857 12.3567H46.5617Z" fill="black"/>
<path d="M61.8555 3.87834H56.5014V18.3969H52.201V3.87834H46.9449V0.558072H61.8555V3.87834Z" fill="black"/>
<path d="M67.6051 12.3444V18.3969H63.3046V0.558072H70.423C71.7871 0.558072 72.9918 0.811278 74.0373 1.31769C75.091 1.81594 75.9037 2.53063 76.4755 3.46178C77.0554 4.38476 77.3454 5.43434 77.3454 6.61052C77.3454 8.3503 76.7205 9.74293 75.4708 10.7884C74.2293 11.8258 72.5222 12.3444 70.3495 12.3444H67.6051ZM67.6051 9.02415H70.423C71.2561 9.02415 71.8892 8.81587 72.3221 8.39931C72.7631 7.98274 72.9837 7.39465 72.9837 6.63503C72.9837 5.8019 72.759 5.13621 72.3098 4.63796C71.8606 4.13972 71.248 3.88651 70.472 3.87834H67.6051V9.02415Z" fill="black"/>
<path d="M87.2238 15.0644H81.3307L80.3015 18.3969H75.707L82.2496 0.558072H86.2927L92.8842 18.3969H88.2653L87.2238 15.0644ZM82.3598 11.7441H86.1947L84.2711 5.55686L82.3598 11.7441Z" fill="black"/>
<path d="M100.129 11.3398H98.0947V18.3969H93.7943V0.558072H98.0947V7.45591H99.7487L103.179 0.558072H108.386L103.486 8.79137L108.999 18.3969H103.914L100.129 11.3398Z" fill="black"/>
</svg>
